<?xml version="1.0" standalone="no"?>
<!DOCTYPE svg PUBLIC "-//W3C//DTD SVG 20010904//EN"
 "http://www.w3.org/TR/2001/REC-SVG-20010904/DTD/svg10.dtd">
<svg version="1.0" xmlns="http://www.w3.org/2000/svg"
 width="1651.000000pt" height="1651.000000pt" viewBox="0 0 1651.000000 1651.000000"
 preserveAspectRatio="xMidYMid meet">
<metadata>
Created by potrace 1.11, written by Peter Selinger 2001-2013
</metadata>
<g transform="translate(0.000000,1651.000000) scale(0.100000,-0.100000)"
fill="#000000" stroke="none">
<path d="M4377 13270 c-247 -43 -457 -200 -570 -425 -62 -126 -82 -215 -80
-367 5 -347 234 -642 575 -738 96 -28 267 -34 363 -13 272 57 503 263 589 523
33 103 47 270 31 365 -60 334 -296 580 -622 649 -71 15 -215 18 -286 6z"/>
<path d="M6259 13275 c-3 -2 -20 -7 -39 -10 -255 -44 -488 -242 -584 -496
-155 -411 67 -880 483 -1019 49 -17 108 -33 132 -36 24 -4 1094 -7 2377 -8
2331 -1 2332 -1 2332 -21 4 -191 0 -2008 -4 -2013 -4 -3 -1063 -7 -2354 -7
l-2347 -2 -79 -22 c-353 -95 -588 -400 -587 -756 0 -55 2 -111 5 -125 3 -14 8
-38 12 -55 3 -16 14 -54 25 -83 93 -256 294 -437 559 -503 84 -21 94 -21 1532
-21 1074 0 1448 -3 1451 -12 3 -10 2 -3723 -2 -3736 0 -3 -655 -5 -1454 -5
-1378 0 -1456 -1 -1526 -18 -289 -73 -508 -290 -582 -577 -29 -115 -30 -247
-3 -369 70 -308 341 -557 652 -599 76 -11 5596 -8 5632 2 14 4 35 9 48 12 41
8 136 46 182 72 202 116 338 294 390 516 19 79 19 170 19 4651 l0 4570 -23 81
c-58 205 -170 361 -338 470 -38 24 -72 44 -76 44 -4 0 -20 7 -36 15 -16 8 -52
22 -81 30 -29 9 -63 19 -76 23 -26 7 -5633 15 -5640 7z"/>
<path d="M4420 9663 c-69 -9 -172 -39 -237 -68 -230 -105 -391 -308 -441 -555
-46 -226 4 -448 139 -627 129 -169 313 -279 519 -309 41 -6 193 -5 225 1 189
37 310 100 435 225 430 429 230 1159 -359 1311 -69 18 -219 30 -281 22z"/>
<path d="M4409 4336 c-2 -2 -23 -6 -46 -10 -24 -3 -76 -17 -117 -30 -271 -91
-479 -349 -516 -637 -51 -411 221 -787 631 -872 58 -12 224 -14 284 -4 67 12
96 20 101 28 3 5 12 9 20 9 31 0 168 72 228 120 81 65 180 189 219 275 59 128
79 221 76 362 -7 363 -265 674 -621 747 -68 14 -248 22 -259 12z"/>
</g>
</svg>
